<svg id="Ebene_1" data-name="Ebene 1" xmlns="http://www.w3.org/2000/svg" viewBox="0 0 236.75 237.66"><defs><style>.cls-1{fill:#fff;}</style></defs><title>logo</title><path class="cls-1" d="M123.24,9.6c1.36-.79,6.94-.37,13.36.29,4,.42,7.46.88,10.87,1.53,1.68.32,2.37.75,2.67,2.78.92,6.14,1.63,12.43,2.21,18.48a5,5,0,0,0,2.37,4.08,79.34,79.34,0,0,0,7.63,3.76c6.92,3.46,14,6.58,20.65,10.62,2.28,1.38,4.46,1.22,6.8-.25,4.93-3.08,10-5.91,15-8.87,1.41-.82,2.52-1.31,4,.22A159.66,159.66,0,0,1,223.71,59c1.51,2,1.6,3.51,0,5.43C220.3,68.57,217.1,72.9,213.59,77c-2.07,2.42-2.75,4.72-1.45,7.77a198.63,198.63,0,0,1,9.44,27.9,6,6,0,0,0,4.87,4.65c5.69,1.39,11.35,2.87,17,4.48,1.05.3,2.55.38,2.68,2.29a90.45,90.45,0,0,1-1,22.59c-.56,3.06-2.11,4.08-5,4.3-5.36.39-10.69,1.06-16,1.59-3.35.19-4.81,2.11-5.92,4.77a169.11,169.11,0,0,1-13.08,25.78c-1.42,2.25-1.28,4.14.09,6.37,3.26,5.34,6.27,10.83,9.47,16.2.87,1.46.87,2.55-.31,3.82a137.69,137.69,0,0,1-17.2,15.35c-1.53,1.18-2.79,1-4.36-.32-4.8-4-9.83-7.78-14.67-11.77-1.9-1.56-3.69-2-6-1a170.57,170.57,0,0,1-28.56,9.84,5.57,5.57,0,0,0-4.48,4.62c-1.36,5.95-3,11.85-4.49,17.77-.42,1.65-1.17,2.69-3.11,2.74-7.81.18-15.6.14-23.3-1.42-1.15-.24-2.34-.5-2.57-2.08-.29-2-.47-3.76-.66-5.81-.43-4.67-.87-9.39-1.46-14a5.19,5.19,0,0,0-3.67-4.57c-2.67-.93-5.21-2.23-7.84-3.3-6.51-2.67-12.32-6.64-18.44-10-2.67-1.47-4.75-1.62-7.51.08-4.88,3-8.71,5.48-13.93,8.58-2.55,1.53-4.21,1.84-6.51-.5a120.78,120.78,0,0,1-14.09-16.52c-1.37-2-1.15-3.13.21-4.78,3.84-4.66,7.45-9.53,11.4-14.1a5.59,5.59,0,0,0,.91-6.62,152.87,152.87,0,0,1-9.19-27A6.94,6.94,0,0,0,28.85,139c-5.31-1.12-10.56-2.57-15.79-4.05-1.45-.41-3.4-.58-3.43-2.91a165,165,0,0,1,1.54-24A2.74,2.74,0,0,1,14,105.35c5.1-.36,9.24-.56,14-.95,3.75-.31,7.73-.12,9.51-4.67a208.14,208.14,0,0,1,13.38-27,5.66,5.66,0,0,0-.28-6.38c-3-4.9-5.84-10-8.86-14.87-1.3-2.12-1.15-3.73.58-5.54A102.16,102.16,0,0,1,58.71,31.73c1.8-1.23,2.95-1.05,4.56.36,4.45,3.92,9.1,7.6,13.61,11.46a5.83,5.83,0,0,0,6.46,1A237,237,0,0,1,112,34.68c3.16-.88,5-2.84,5.78-6.31,1.11-4.71,2-9.09,3.1-13.75C121.27,12.79,121.67,10.52,123.24,9.6ZM89.11,127.3c.08,24,17.71,39.16,38.26,39.68,22.51.57,38.22-17.63,38.81-39.77.54-20.83-17.12-38.11-37.63-38.15C107.24,89,89.43,106.62,89.11,127.3Z" transform="translate(-9.62 -9.17)"/></svg>